<?xml version="1.0" encoding="utf-8"?>
<!-- Generator: Adobe Illustrator 16.0.0, SVG Export Plug-In . SVG Version: 6.00 Build 0)  -->
<!DOCTYPE svg PUBLIC "-//W3C//DTD SVG 1.1//EN" "http://www.w3.org/Graphics/SVG/1.1/DTD/svg11.dtd">
<svg version="1.1" id="Layer_1" xmlns="http://www.w3.org/2000/svg" xmlns:xlink="http://www.w3.org/1999/xlink" x="0px" y="0px"
	 width="2400px" height="2400px" viewBox="0 0 2400 2400" enable-background="new 0 0 2400 2400" xml:space="preserve">
<g transform="translate(0.000000,2400.000000) scale(0.100000,-0.100000)">
	<path d="M8815.998,22952.996C8813,22937,8743,22536,8660.002,22060c-82.002-475.996-153.008-870.996-157.002-878
		c-5-7-72.998-39.004-152.998-71c-1549.004-625.004-2944.004-1665.004-3986.006-2971
		c-1080-1354.004-1786.992-2967.998-2038.994-4650c-14.004-95.996-31.006-185.996-36.006-199.004c-20-48.994-60-432.998-78.994-765
		c-12.998-230-12.998-807.998,0-1050.996c12.002-217.998,30.996-422.002,62.002-682.998l21.992-184.004l-40-37.002
		c-82.998-77.998-193.994-180-303.994-280.996c-62.998-57.998-146.006-134.004-185-170
		c-84.004-79.004-99.004-92.002-522.002-484.004c-182.998-167.998-334.004-310-337.002-315
		C903,9317.002,1028,9092.998,1183,8824.004c155-269.004,880.996-1525,1612.002-2791.006
		C3525.998,4765.996,4128.996,3730,4135.002,3730c5.996,0,85,27.002,175.996,60.996c90,33.008,285.996,105,434.004,159.004
		c880,322.001,1095.996,400,1103.994,400c6.006,0,36.006-22.002,69.004-49.004c182.998-152.998,632.002-468.994,927.002-652.998
		c500-312.002,1150.996-630,1760-857.998c1453.994-545,3062.998-737.002,4605-550c822.997,100,1653.993,307.998,2394.999,600
		c98.994,39.004,188.994,72.002,200,74.004c53.994,8.994,373.994,155,689.999,313.994c513,260,961.992,537.998,1433,889.003
		L18120.996,4260l52.004-15.996c28.992-9.004,65.996-20,82-26.006c46.992-15,503-157.002,570-177.002
		c115.996-35,650-201.992,675-210.996c13.996-5,71.992-22.998,130-40c58-17.998,146.992-45,198-62.002
		c50.996-15.996,97-27.998,102-25.996c11.992,3.994,3231.992,5578.994,3227.998,5587.998c-2.998,7.002-195,169.004-997.998,837.998
		c-201.006,167.998-373.008,312.998-384.004,322.002c-17.998,17.998-17.998,20.996,2.002,167.002
		c110.996,782.002,123.994,1555.996,40.996,2372.998c-192.002,1889.004-915.994,3660.996-2104.998,5152
		c-762.004,955.996-1725,1780-2793.996,2390.996c-335,191.008-801.005,420-1137.001,557.004c-46.006,17.996-85,41-87.002,49.004
		c-2.998,8.992-95.996,418.992-205.996,910.996c-111.006,492-204.004,902.996-206.006,912.996
		c-5,16.008-167.998,17.004-3233.993,17.004H8821.994L8815.998,22952.996z M14743.995,22442.996
		c7.998-26.996,235-998.992,316.006-1352.996c38.994-173,75-328,78.994-345c7.002-28,17.998-34.004,197.002-103
		c394.004-152,864.004-370,1189.003-552c1060-592.004,1973-1362.004,2720-2290c1163.996-1447.003,1863-3202.002,2013.996-5055
		c32.996-400.996,39.004-1112.002,11.004-1445c-26.004-320-75-695-132-1012.998l-12.004-67.002l44.004-42.998
		c25-22.998,85.996-76.006,135-117.002c50-40.996,95-80,101.992-85.996c6.006-6.006,57.002-49.004,114.004-95
		c55.996-46.006,145-120,197.998-164.004c52.998-45,224.004-187.998,381.006-319.004c381.992-320,355-295,342.998-315
		c-5-8.994-612.002-1058.994-1347.002-2332.998C20291.992,5355,19751.992,4430,19743.996,4430c-8,0-88,22.002-177.004,49.004
		c-88.992,26.992-177.996,53.994-196.992,58.994c-42,11.006-449.004,134.004-535,161.006c-33.008,10.996-100,30.996-150,45.996
		c-49.004,15-99.004,30.996-110,35c-11.004,5-40,14.004-65,20s-54.004,15-65,20c-11.004,5-51.004,17.998-90,27.998
		c-38.008,11.006-125,37.002-192,57.002c-121.008,37.002-122.004,37.002-147.004,19.004c-12.996-11.006-89.004-71.006-167.996-135
		c-242.004-196.006-689.004-519.004-717.004-519.004c-5,0-50-25.996-97.996-57.002c-467.004-300.996-1049.005-598.994-1582.003-810
		c-902.002-357.002-1797.001-558.994-2815.995-635c-223.008-15.996-967.002-15.996-1190,0
		c-1303.008,97.002-2449.004,410-3565,972.998C7301.994,4032.002,6698,4420,6245.002,4790c-38.008,32.002-75,59.004-82.002,60.996
		c-6.006,2.002-55,42.002-107.998,88.008L5958,5022.002l-47.002-10c-45-10-110-32.002-430.996-152.002
		c-91.006-34.004-311.006-115-490-180c-179.004-65-399.004-145.996-490-179.004c-90-33.994-169.004-60.996-175-60.996
		c-6.006,0-617.002,1050.996-1359.004,2335.996L1617.004,9112.002l33.994,30c19.004,17.002,107.998,100.996,199.004,187.002
		c90.996,85,193.994,182.998,230,215.996c35.996,34.004,107.998,102.002,160,152.002c52.002,50,118.994,112.002,148.994,138.994
		c30,27.002,71.006,65,92.002,84.004c67.998,64.004,261.006,245,287.998,269.004c14.004,12.998,56.006,51.992,92.002,86.992
		L2928,10340l-14.004,72.002c-50,260-105,733.994-108.994,927.998c-1.006,80-6.006,295.996-10,480
		c-12.002,532.998,20,1039.004,100,1565c390,2570.995,1840.996,4857,4000,6300c630.996,422.996,1338.994,780,2020,1020
		c115,40.996,120,44.004,127.998,75.996c10,40,75,405.004,197.998,1114.004c50,286,92.998,530,95.996,542.996l5,22.004h2698.008
		C14601.993,22460,14738.995,22459.004,14743.995,22442.996z"/>
	<path d="M12031.535,18505c-3587.935,0-6496.533-2908.6-6496.533-6496.539c0-3587.943,2908.599-6496.537,6496.533-6496.537
		c3587.948,0,6496.531,2908.594,6496.531,6496.537C18528.066,15596.4,15619.483,18505,12031.535,18505z M12045.002,6685
		c-2932.632,0-5310,2377.373-5310,5310c0,2932.631,2377.368,5310,5310,5310c2932.626,0,5309.998-2377.369,5309.998-5310
		C17355,9062.373,14977.628,6685,12045.002,6685z"/>
	<polygon points="5631.779,7742.588 5232.067,8435.576 9173.43,10708.955 8707.561,11534.639 11598.166,11668.857 
		10034.611,9233.916 9573.137,10015.967 	"/>
	<polygon points="18869.16,8502.441 18469.348,7809.512 14528.302,10083.418 14046.729,9266.797 12483.508,11701.934 
		15374.093,11567.324 14928.106,10776.348 	"/>
	<polygon points="11640.002,19520 12440.002,19520 12440.002,14970 13388,14960.996 12060.002,12390 10731.994,14960.996 
		11640.002,14970 	"/>
</g>
</svg>
